<svg width="218" height="247" viewBox="0 0 218 247" fill="none" xmlns="http://www.w3.org/2000/svg">
<path fill-rule="evenodd" clip-rule="evenodd" d="M151.4 106.293L145.964 68.061L140.705 109.624L151.4 106.293ZM120.354 150.148L136.982 25.6047L154.389 20.1652L171.57 134.124L154.687 139.397L153.018 123.067L139.444 127.313L137.708 144.717L120.357 150.148H120.354ZM28.7287 58.4696C36.6803 55.9996 51.3719 60.7509 51.3719 76.8697C51.3719 88.673 44.5205 96.1579 44.5205 96.1579C44.5205 96.1579 51.3719 99.5882 51.3719 111.644C51.3719 121.924 44.5205 129.919 44.5205 129.919C44.5205 129.919 51.3719 134.11 51.3719 144.895C51.3719 168.246 28.7287 177.56 28.7287 177.56L0.253448 186.491V67.3172C0.253448 67.3172 20.7799 60.9424 28.7287 58.4696ZM17.2512 147.129V163.672L27.3473 160.542C27.3473 160.542 33.7392 157.6 33.7392 150.553C33.7392 143.51 27.1468 144.059 27.1468 144.059L17.2512 147.129ZM17.2512 112.943V129.489L27.3473 126.359C27.3473 126.359 33.7392 123.414 33.7392 116.368C33.7392 109.327 27.1468 109.873 27.1468 109.873L17.2512 112.943ZM17.2512 79.2787V95.8277L27.3473 92.6944C27.3473 92.6944 33.7392 89.7498 33.7392 82.7034C33.7392 75.6625 27.1468 76.2092 27.1468 76.2092L17.2512 79.2787V79.2787ZM62.6852 47.8514L113.308 32.1239V49.4361L79.4712 59.9266V76.4701L113.308 65.9795V83.2723L79.4712 93.7629V110.401L113.308 99.9129V117.092L79.4712 127.61V144.317L113.308 133.827V151.192L62.6852 167V47.8514V47.8514ZM45.7794 180.465L69.0882 173.222V181.195L53.5081 186.024V193.64L69.0882 188.811V196.773L53.5081 201.602V209.262L69.0882 204.433V212.342L53.5081 217.188V224.875L69.0882 220.046V228.186L45.7821 235.244V180.465H45.7794ZM72.9763 172.09L96.2823 164.846V172.82L80.705 177.649V185.264L96.2823 180.435V188.397L80.705 193.226V200.886L96.2823 196.057V203.967L80.705 208.812V216.5L96.2823 211.671V219.811L72.9763 226.868V172.09V172.09ZM131.798 153.931L155.107 146.687V154.661L139.53 159.49V167.105L155.107 162.276V170.239L139.53 175.068V182.727L155.107 177.898V185.808L139.53 190.653V198.341L155.107 193.515V201.652L131.801 208.709V153.931H131.798ZM183.415 129.758V27.8055L166.139 33.1285V15.7775L216.923 0V17.3844L200.14 22.5908V124.241L183.415 129.761V129.758ZM0 194.739L9.83712 191.547L12.6223 230.368L16.8501 189.38L25.7013 186.649L29.9987 225.419L32.5527 184.534L41.6462 181.725L35.2348 238.441L24.3477 241.755L20.9443 194.852L17.9697 243.697L7.12996 247L0 194.739ZM100.46 163.572L110.058 160.608V181.528L116.94 158.482L127.805 155.13L118.558 183.221L130.311 209.487L119.753 212.703L112.826 193.798L110.058 199.126V215.656L100.46 218.578V163.572V163.572ZM159.316 145.403L168.98 142.419L177.692 172.559L176.132 158.349V140.213L185.699 137.26V192.618L175.857 195.616L166.927 158.222L168.871 188.045V197.744L159.316 200.653V145.403V145.403ZM207.326 130.583C217.135 127.555 217.241 135.717 217.241 135.717V172.373C217.241 183.016 207.326 186.035 207.326 186.035L190.687 191.103V135.72L207.326 130.583V130.583ZM200.413 139.924V180.798L203.964 179.716C203.964 179.716 207.326 178.97 207.326 173.894V141.09C207.326 141.09 207.181 137.834 203.964 138.828L200.413 139.924Z" fill="#F1EB53"/>
</svg>
